# xmcd
#
# Track frame offsets: 
#        150
#        15732
#        25967
#        38472
#        53704
#        79572
#        119523
#        141482
#        144276
#        155596
#        170770
#        190115
#
# Disc length: 2974 seconds
#
# Revision: 0
# Processed by: cddbd v1.5.2PL0 Copyright (c) Steve Scherf et al.
# Submitted via: ExactAudioCopy v0.95b4
#
DISCID=9b0b9c0c
DTITLE=The Who  - The 1969 SDB Tapes 1 - Corrected Version  FLAC
DYEAR=1900
DGENRE=
TTITLE0=Heaven and Hell
TTITLE1=Can't Explain
TTITLE2=Fortune Teller
TTITLE3=Summertime Blues
TTITLE4=Shakin' All Over
TTITLE5=My Generation
TTITLE6=Overture
TTITLE7=It's a Boy
TTITLE8=1921
TTITLE9=Amazing Journey
TTITLE10=Sparks (some tape flaws)
TTITLE11=Young Man Blues
EXTD=
EXTT0=
EXTT1=
EXTT2=
EXTT3=
EXTT4=
EXTT5=
EXTT6=
EXTT7=
EXTT8=
EXTT9=
EXTT10=
EXTT11=
PLAYORDER=
